<svg xmlns="http://www.w3.org/2000/svg" viewBox="0 0 93 93"><circle fill="#FFF" cx="46.5" cy="46.5" r="46.5"/><path fill="#28367B" d="M14.5 39.4l-6.6-1.9.4-1.3 5.4 1.6.9-3 1.1.3-1.2 4.3zm1.9-5.8l-6.1-3.1 2-4 1.1.5-1.5 2.8 1.4.7 1.2-2.4 1.1.5-1.2 2.4 1.5.8 1.4-2.8 1.1.5-2 4.1zm6.1-9.2c-.7.8-1.4 1.2-2.4 1.2v-1.2c.6 0 1.1-.3 1.6-.8.5-.6.6-1.1.2-1.5-.2-.2-.4-.3-.6-.2-.2 0-.3.1-.6.3l-.7.5c-.5.4-.9.6-1.3.6-.5 0-.9-.2-1.3-.6-.9-.8-.9-2.1.1-3.2.7-.7 1.3-1 2.1-1.1v1.2c-.6 0-1 .4-1.3.7-.5.5-.4 1-.1 1.4.1.1.3.2.5.2s.4-.1.6-.3l.6-.5c.5-.4.9-.6 1.3-.6.5 0 1 .2 1.4.6 1.1.9.9 2.3-.1 3.3zm3-3.1l-3.9-5.6 1.1-.8 3.2 4.6 2.5-1.8.7 1-3.6 2.6zm5.1-3.4l-3.2-6 1.2-.6 3.2 6.1-1.2.5zm4.8-4.9l-1.2.4.8 2.5-1.3.4-2.2-6.4L34 9c1.3-.5 2.5.2 2.8 1.3.4 1.1 0 2.3-1.4 2.7zm-1-2.9l-1.2.4.6 1.8 1.2-.4c.6-.2.8-.7.6-1.2-.2-.5-.7-.8-1.2-.6zM44 8.2l.1 1.7 2.7-.1V11l-2.7.1.1 2.8h-1.3l-.2-6.8 4.4-.2v1.2l-3.1.1zm8.7 6.2l-.9-2.9-.9-.2-.4 2.7-1.3-.2L50.3 7l2.6.4c1.4.2 2 1.3 1.9 2.4-.2.9-.8 1.4-1.5 1.6l1 3.2-1.6-.2zm-.1-5.8l-1.2-.2-.3 1.8 1.2.2c.6.1 1-.2 1.1-.7.1-.6-.2-1-.8-1.1zm6.9 7.8v-1.3l-2.3-.8-.8 1-1.3-.5 4.8-5.6 1 .4v7.3l-1.4-.5zm.2-5.1l-1.7 2 1.6.6.1-2.6zm5.8 8.5v-5l-2.3 3.5-1.1-.7 3.7-5.8 1 .6v5l2.3-3.5 1.1.7-3.7 5.8-1-.6zm4.3 3.7c-.5-.5-.8-1.2-.8-1.8 0-1 .6-1.6 1.5-2.4.8-.8 1.4-1.5 2.4-1.5.7 0 1.3.2 1.8.8.9.9 1.1 2.1.3 3.3l-1-1c.3-.5.3-1-.1-1.5-.3-.3-.6-.4-.9-.4-.4 0-.7.2-1.6 1.1s-1.1 1.2-1.1 1.6c0 .3.1.6.4.9.5.5 1 .4 1.5.1l1 1c-1.3.8-2.5.7-3.4-.2zm5 6.2l.8-1-1.3-2-1.2.3-.9-1.1 7.1-1.7.6.9-4.3 5.8-.8-1.2zm3.1-4l-2.6.7.9 1.4 1.7-2.1zm-1.8 6.5l6.2-2.9.6 1.2-6.2 2.9-.6-1.2zm1.9 5c-.3-1-.3-1.8.2-2.7l1.1.6c-.3.5-.3 1.1-.1 1.7.2.8.6 1.1 1.2.9.2-.1.4-.2.5-.4.1-.2.1-.3.1-.6l-.1-.8c-.1-.6 0-1.1.2-1.4.2-.4.6-.7 1.2-.8 1.2-.3 2.2.3 2.7 1.7.3.9.2 1.6-.1 2.3l-1-.6c.3-.5.2-1 .1-1.5-.2-.7-.7-.9-1.1-.8-.2 0-.3.2-.4.3-.1.2-.1.4-.1.7l.1.8c.1.6 0 1.1-.1 1.4-.2.4-.7.7-1.2.9-1.8.6-2.8-.3-3.2-1.7zM10.3 62.6l3.6-1.5-2.8-.2-.3-.8 1.8-2.2L9 59.4l-.5-1.2 6.2-2.6.5 1.2-2.7 3 4 .2.5 1.2-6.2 2.6-.5-1.2zm4.5 7.6l.7-1-1.4-1.9-1.2.3-.8-1.1 6.9-2 .6.8-4 6-.8-1.1zm2.9-4.1l-2.5.8 1 1.4 1.5-2.2zm3.2 9.8c-.6 0-1.2-.3-1.7-.7l-1.8-1.7 4.6-5 1.8 1.7c.5.5.8 1.1.9 1.7 0 1.1-.6 1.7-1.3 2.4-.7.8-1.4 1.6-2.5 1.6zm2.4-4c0-.4-.1-.7-.4-1l-.7-.7-3 3.2.7.7c.3.3.7.4 1 .4.4-.1.7-.4 1.4-1.1.7-.7 1-1 1-1.5zm.3 7.2l3.4-5.8 3.8 2.2-.6 1-2.6-1.6-.8 1.4 2.3 1.3-.6 1-2.3-1.3-.8 1.4 2.7 1.6-.6 1-3.9-2.2zm10.9 5.3l1.8-6.5 1.3.4-1.8 6.5-1.3-.4zm8.8 1.7L41 81.6l-.4 4.1-1.3-.1.6-6.7 1.2.1 2.3 4.4.4-4.1 1.3.1-.6 6.7h-1.2zm9.2-5.9l.4 1.6 2.6-.6.3 1.1-2.6.6.6 2.7-1.4.3-1.5-6.5 4.3-1 .3 1.1-3 .7zm10.6 2.5l-2.2-2-.9.4 1.1 2.5-1.2.5-2.8-6.2 2.4-1.1c1.3-.6 2.4 0 2.8 1 .4.9.1 1.6-.4 2.1l2.6 2.1-1.4.7zM60 77.9l-1.1.5.7 1.6 1.1-.5c.5-.2.7-.7.5-1.2s-.7-.6-1.2-.4zm10.5.3l-1-.7-1.9 1.5.4 1.2-1.1.8-2-6.9.8-.6 6 4-1.2.7zm-4.1-2.8l.8 2.5 1.4-1-2.2-1.5zm10.1-2.7l-4.9-.7 3.1 2.7-.9 1-5.1-4.5.8-.9 4.9.7-3.1-2.7.9-1 5.1 4.5-.8.9zm4.2-5.8c-.4.6-.9 1-1.6 1.2-.9.2-1.7-.2-2.7-.8-1-.6-1.7-1-2-1.9-.2-.6-.1-1.3.3-1.9.6-1.1 1.7-1.6 3.1-1.1l-.7 1.2c-.5-.2-1.1-.1-1.4.5-.2.3-.2.6-.1.9.1.4.4.6 1.5 1.2s1.4.7 1.8.7c.3-.1.5-.2.7-.6.3-.6.1-1.1-.3-1.5l.7-1.2c1.3 1.1 1.4 2.3.7 3.3zm2.6-5L77 59.6l1.5-4.2 1.1.4-1.1 2.9 1.5.5.9-2.5 1.1.4-.9 2.5 1.5.6 1.1-2.9 1.1.4-1.5 4.2zM63.1 46.6c0 9.2-7.5 16.7-16.7 16.7s-16.7-7.5-16.7-16.7 7.5-16.7 16.7-16.7 16.7 7.5 16.7 16.7"/><path fill="#FFF" d="M57 47.6c-1 .2-5.6-.5-8.4 4.8 0 0-.4.8-2.2.8s-2.2-.8-2.2-.8c-3-5.7-8-4.8-8.5-4.9v-5h21.4"/><path fill="#E20613" d="M46.4 70.1c-13 0-23.6-10.6-23.6-23.6s10.6-23.6 23.6-23.6c6.3 0 12.2 2.5 16.7 6.9 4.5 4.5 6.9 10.4 6.9 16.7s-2.5 12.2-6.9 16.7c-4.4 4.4-10.4 6.9-16.7 6.9m0-53.8c-16.6 0-30.1 13.5-30.1 30.2 0 16.6 13.5 30.1 30.2 30.1 16.6 0 30.2-13.5 30.2-30.1-.1-16.7-13.7-30.2-30.3-30.2"/><path fill="#28367B" d="M67.8 24l.7-.7 1 .9-.8.7z"/></svg>